<svg width="30" height="39" viewBox="0 0 30 39" version="1.1" xmlns="http://www.w3.org/2000/svg" xmlns:xlink="http://www.w3.org/1999/xlink">
<title>Vector</title>
<desc>Created using Figma</desc>
<g id="Canvas" transform="translate(438 -19)">
<g id="Vector" opacity="0.2">
<use xlink:href="#path0_fill" transform="translate(-438 19)" fill="#FFFFFF"/>
</g>
</g>
<defs>
<path id="path0_fill" d="M 1.42045 0C 0.654545 0 0 0.598373 0 1.36047L 0 37.6395C 0 38.4016 0.654545 39 1.42045 39L 28.5795 39C 29.3455 39 30 38.4016 30 37.6395L 30 1.36047C 30 0.598373 29.3455 0 28.5795 0L 1.42045 0ZM 1.42045 0.906977L 28.5795 0.906977C 28.888 0.906977 29.0909 1.11762 29.0909 1.36047L 29.0909 37.6395C 29.0909 37.8824 28.888 38.093 28.5795 38.093L 1.42045 38.093C 1.11195 38.093 0.909091 37.8824 0.909091 37.6395L 0.909091 1.36047C 0.909091 1.11762 1.11195 0.906977 1.42045 0.906977ZM 10.909 9.06977C 10.658 9.06977 10.4545 9.27279 10.4545 9.52326C 10.4545 9.77371 10.658 9.97674 10.909 9.97674L 24.0909 9.97674C 24.342 9.97674 24.5455 9.77371 24.5455 9.52326C 24.5455 9.27279 24.342 9.06977 24.0909 9.06977L 10.909 9.06977ZM 10.909 14.0581C 10.658 14.0581 10.4545 14.2612 10.4545 14.5116C 10.4545 14.7621 10.658 14.9651 10.909 14.9651L 24.0909 14.9651C 24.342 14.9651 24.5455 14.7621 24.5455 14.5116C 24.5455 14.2612 24.342 14.0581 24.0909 14.0581L 10.909 14.0581ZM 5.90909 19.0465C 5.65805 19.0465 5.45455 19.2495 5.45455 19.5C 5.45455 19.7505 5.65805 19.9535 5.90909 19.9535L 24.0909 19.9535C 24.342 19.9535 24.5455 19.7505 24.5455 19.5C 24.5455 19.2495 24.342 19.0465 24.0909 19.0465L 5.90909 19.0465ZM 5.90909 24.0349C 5.65805 24.0349 5.45455 24.2379 5.45455 24.4884C 5.45455 24.7388 5.65805 24.9419 5.90909 24.9419L 24.0909 24.9419C 24.342 24.9419 24.5455 24.7388 24.5455 24.4884C 24.5455 24.2379 24.342 24.0349 24.0909 24.0349L 5.90909 24.0349ZM 16.2784 28.1163C 16.1295 28.1421 15.9967 28.2468 15.9375 28.3856L 13.75 33.629L 12.1591 34.0258C 11.9285 34.0851 11.7728 34.3484 11.8323 34.5785C 11.8918 34.8086 12.1558 34.9639 12.3864 34.9045L 14.2045 34.451C 14.3433 34.417 14.4631 34.3137 14.517 34.1817L 16.3352 29.8169L 17.7557 33.7141C 17.8782 34.0361 18.4139 34.073 18.5795 33.7708L 20.412 30.483L 21.8608 33.7424C 21.947 33.9351 22.1811 34.0488 22.3864 33.9975L 24.2045 33.544C 24.4352 33.4847 24.5909 33.2213 24.5314 32.9912C 24.4719 32.7612 24.2079 32.6059 23.9773 32.6653L 22.5284 33.0196L 20.8665 29.2925C 20.7313 28.9881 20.2233 28.9614 20.0568 29.2499L 18.267 32.4669L 16.7898 28.4138C 16.6548 28.1425 16.4745 28.0834 16.2784 28.1163Z"/>
</defs>
</svg>
