<svg width="51" height="48" viewBox="0 0 51 48" version="1.1" xmlns="http://www.w3.org/2000/svg" xmlns:xlink="http://www.w3.org/1999/xlink">
<title>icn_com_offer</title>
<desc>Created using Figma</desc>
<g id="Canvas" transform="translate(443 158)">
<g id="icn_com_offer">
<g id="Vector">
<use xlink:href="#path0_fill" transform="translate(-434.016 -134.571)" fill="#FFFFFF"/>
</g>
<g id="Vector">
<use xlink:href="#path1_fill" transform="translate(-434.016 -128.445)" fill="#FFFFFF"/>
</g>
<g id="Vector">
<use xlink:href="#path2_fill" transform="translate(-434.017 -147.193)" fill="#FFFFFF"/>
</g>
<g id="Vector">
<use xlink:href="#path3_fill" transform="translate(-434.016 -141.062)" fill="#FFFFFF"/>
</g>
<g id="Vector">
<use xlink:href="#path4_fill" transform="translate(-434.017 -122.275)" fill="#FFFFFF"/>
</g>
<g id="Vector">
<use xlink:href="#path5_fill" transform="translate(-406.213 -141.158)" fill="#FFFFFF"/>
</g>
<g id="Ellipse">
<mask id="mask0_outline_ins">
<use xlink:href="#path6_fill" fill="white" transform="translate(-414.574 -146.211)"/>
</mask>
<g mask="url(#mask0_outline_ins)">
<use xlink:href="#path7_stroke_2x" transform="translate(-414.574 -146.211)" fill="#FFFFFF"/>
</g>
</g>
<g id="Subtract">
<use xlink:href="#path8_fill" transform="translate(-443 -158)" fill="#FFFFFF"/>
</g>
</g>
</g>
<defs>
<path id="path0_fill" d="M 17.0842 0.754525L -1.40331e-07 0.754525L -1.40331e-07 1.15646e-07L 17.0766 1.15646e-07C 17.0691 0.063158 17.0691 0.118736 17.0691 0.182736C 17.0683 0.373052 17.0766 0.563367 17.0842 0.754525Z"/>
<path id="path1_fill" d="M 18.8508 0.754526L -1.40331e-07 0.754526L -1.40331e-07 2.5699e-07L 18.4411 2.5699e-07C 18.5673 0.253474 18.7011 0.50779 18.8508 0.754526Z"/>
<path id="path2_fill" d="M 22.2393 0L 0 0L 0 0.753684L 22.2393 0.753684L 22.2393 0Z"/>
<path id="path3_fill" d="M 18.8349 -3.85485e-08C 18.6852 0.245895 18.559 0.492631 18.4327 0.746947L -1.40331e-07 0.746947L -1.40331e-07 -3.85485e-08L 18.8349 -3.85485e-08Z"/>
<path id="path4_fill" d="M 22.2393 0L 0 0L 0 0.753684L 22.2393 0.753684L 22.2393 0Z"/>
<path id="path5_fill" d="M 2.59258 1.58821C 2.59258 1.05347 2.59258 0.533895 2.59258 4.36883e-07C 2.92366 4.36883e-07 3.2422 4.36883e-07 3.58248 4.36883e-07C 3.58248 0.506948 3.58248 1.01305 3.58248 1.51242C 3.97376 1.57895 4.35166 1.61684 4.71284 1.71368C 5.00964 1.79284 5.28889 1.94021 5.57148 2.06653C 5.60743 2.08253 5.6484 2.16926 5.63585 2.20379C 5.51546 2.528 5.3842 2.84716 5.25043 3.18316C 4.86166 2.94905 4.45282 2.79747 4.01807 2.72589C 3.49887 2.64 2.97884 2.59789 2.46884 2.77558C 1.9555 2.95411 1.61271 3.30358 1.52576 3.8501C 1.43965 4.39074 1.60435 4.86737 2.07255 5.16547C 2.46383 5.41474 2.88604 5.6219 3.31243 5.80716C 3.86423 6.04716 4.41269 6.28716 4.90514 6.64168C 5.79137 7.27832 6.16425 8.15074 6.0171 9.22358C 5.87581 10.2543 5.26631 10.9465 4.32825 11.3474C 4.06489 11.4602 3.78063 11.5251 3.48633 11.6185C 3.48633 12.1465 3.48633 12.6939 3.48633 13.2514C 3.1285 13.2514 2.78654 13.2514 2.42954 13.2514C 2.42954 12.7175 2.42954 12.1928 2.42954 11.6758C 2.06335 11.6227 1.71053 11.5857 1.3644 11.5175C 0.915432 11.4291 0.49071 11.2648 0.0944151 11.0299C -0.000896372 10.9735 -0.020126 10.9204 0.0191691 10.8152C 0.131202 10.5179 0.230695 10.2164 0.341892 9.89895C 0.430515 9.94779 0.506595 9.98989 0.583513 10.0312C 1.26741 10.3992 1.99479 10.6105 2.77233 10.5794C 3.06077 10.5676 3.36259 10.5103 3.63014 10.4008C 4.8023 9.92337 4.97787 8.47158 3.97292 7.66484C 3.56827 7.33979 3.09756 7.13853 2.62268 6.94484C 2.02907 6.70231 1.45971 6.41853 0.958071 6.00505C -0.219945 5.0341 -0.0970449 3.17137 1.07763 2.25179C 1.4664 1.94779 1.90366 1.75158 2.38105 1.64126C 2.4446 1.62526 2.50897 1.60842 2.59258 1.58821Z"/>
<path id="path6_fill" d="M 22.5738 11.3684C 22.5738 17.647 17.5205 22.7368 11.2869 22.7368C 5.05331 22.7368 0 17.647 0 11.3684C 0 5.08982 5.05331 0 11.2869 0C 17.5205 0 22.5738 5.08982 22.5738 11.3684Z"/>
<path id="path7_stroke_2x" d="M 21.5738 11.3684C 21.5738 17.1015 16.9614 21.7368 11.2869 21.7368L 11.2869 23.7368C 18.0795 23.7368 23.5738 18.1925 23.5738 11.3684L 21.5738 11.3684ZM 11.2869 21.7368C 5.61237 21.7368 1 17.1015 1 11.3684L -1 11.3684C -1 18.1925 4.49425 23.7368 11.2869 23.7368L 11.2869 21.7368ZM 1 11.3684C 1 5.6353 5.61237 1 11.2869 1L 11.2869 -1C 4.49425 -1 -1 4.54433 -1 11.3684L 1 11.3684ZM 11.2869 1C 16.9614 1 21.5738 5.6353 21.5738 11.3684L 23.5738 11.3684C 23.5738 4.54433 18.0795 -1 11.2869 -1L 11.2869 1Z"/>
<path id="path8_fill" fill-rule="evenodd" d="M 5 1L 35.1311 1C 37.3403 1 39.1311 2.79086 39.1311 5L 39.1311 9.26315L 40.1311 9.26315L 40.1311 5C 40.1311 2.23857 37.8926 0 35.1311 0L 5 0C 2.23859 0 0 2.23857 0 5L 0 43C 0 45.7614 2.23859 48 5 48L 35.1311 48C 37.8926 48 40.1311 45.7614 40.1311 43L 40.1311 37.0526L 39.1311 37.0526L 39.1311 43C 39.1311 45.2091 37.3403 47 35.1311 47L 5 47C 2.79086 47 1 45.2091 1 43L 1 5C 1 2.79086 2.79086 1 5 1Z"/>
</defs>
</svg>
